<?xml version="1.0" standalone="no"?>
<!DOCTYPE svg PUBLIC "-//W3C//DTD SVG 20010904//EN"
 "http://www.w3.org/TR/2001/REC-SVG-20010904/DTD/svg10.dtd">
<svg version="1.0" xmlns="http://www.w3.org/2000/svg"
 width="512.000000pt" height="512.000000pt" viewBox="0 0 512.000000 512.000000"
 preserveAspectRatio="xMidYMid meet">

<g transform="translate(0.000000,512.000000) scale(0.100000,-0.100000)"
fill="#000000" stroke="none">
<path d="M3590 4881 c199 -131 462 -379 607 -572 272 -362 447 -797 504 -1254
21 -165 16 -495 -10 -664 -86 -565 -323 -1035 -725 -1437 -408 -408 -886 -645
-1471 -730 -165 -24 -504 -24 -670 0 -165 24 -324 60 -463 106 -142 47 -125
31 73 -65 360 -177 716 -259 1125 -259 525 0 982 137 1413 424 305 203 572
478 767 790 176 281 307 649 357 1005 20 136 22 491 5 625 -61 462 -222 873
-485 1230 -87 118 -113 148 -246 283 -201 205 -410 356 -675 487 -88 44 -165
80 -170 80 -6 0 23 -22 64 -49z"/>
<path d="M3761 3347 l-32 -34 83 -60 c109 -79 175 -139 192 -172 35 -67 27
-144 -19 -199 -14 -17 -25 -32 -25 -35 0 -3 16 -11 36 -17 109 -36 224 51 224
170 0 63 -30 110 -117 179 -90 72 -281 201 -298 201 -6 0 -26 -15 -44 -33z"/>
<path d="M3285 2870 c-33 -34 -36 -30 63 -94 162 -106 212 -163 212 -241 0
-42 -23 -101 -51 -132 l-21 -21 20 -11 c30 -16 118 -14 151 4 72 37 110 121
90 201 -15 57 -46 89 -164 170 -78 53 -252 154 -266 154 -3 0 -18 -14 -34 -30z"/>
<path d="M2778 2364 c-15 -15 -8 -21 91 -70 120 -60 187 -112 207 -161 28 -66
13 -144 -39 -200 l-20 -22 27 -11 c99 -37 210 19 237 122 17 63 0 121 -50 168
-49 46 -194 121 -307 159 -105 35 -123 37 -146 15z"/>
<path d="M2628 1651 c40 -55 56 -117 50 -199 -6 -80 -33 -139 -92 -200 -52
-55 -101 -80 -185 -96 l-66 -13 50 -31 c61 -40 103 -52 177 -52 144 0 262 91
303 235 49 167 -62 353 -233 390 l-34 7 30 -41z"/>
</g>
</svg>
